<svg width="100" height="100" viewBox="0 0 100 100" xmlns="http://www.w3.org/2000/svg">
  <!-- Purple background -->
  <rect width="100" height="100" fill="#8A2BE2" />
  
  <!-- Monster silhouette -->
  <g fill="#4B0082" stroke="#000" stroke-width="2">
    <!-- Main body -->
    <ellipse cx="50" cy="60" rx="25" ry="20" />
    
    <!-- Head -->
    <circle cx="50" cy="35" r="15" />
    
    <!-- Arms -->
    <ellipse cx="25" cy="50" rx="8" ry="15" transform="rotate(-30 25 50)" />
    <ellipse cx="75" cy="50" rx="8" ry="15" transform="rotate(30 75 50)" />
    
    <!-- Legs -->
    <ellipse cx="40" cy="80" rx="6" ry="12" />
    <ellipse cx="60" cy="80" rx="6" ry="12" />
    
    <!-- Horns -->
    <path d="M42 25 L45 15 L48 25 Z" />
    <path d="M52 25 L55 15 L58 25 Z" />
  </g>
  
  <!-- Eyes -->
  <g fill="#FF0000">
    <circle cx="45" cy="32" r="3" />
    <circle cx="55" cy="32" r="3" />
  </g>
  
  <!-- Claws -->
  <g stroke="#000" stroke-width="2" fill="none">
    <path d="M20 45 L15 40 M20 50 L15 50 M20 55 L15 60" />
    <path d="M80 45 L85 40 M80 50 L85 50 M80 55 L85 60" />
  </g>
  
  <!-- Border -->
  <rect width="100" height="100" fill="none" stroke="#000" stroke-width="2" />
</svg> 